<svg data-logo="logo" xmlns="http://www.w3.org/2000/svg" viewBox="0 0 217.5 42">
        <g id="logogram" transform="translate(0, 1) rotate(0)"><path d="M26.413 21.0457C27.1236 21.0457 27.8051 21.3271 28.3076 21.828L34.2217 27.7233C35.9782 29.4742 35.9782 32.313 34.2217 34.0638C32.4653 35.8146 29.6177 35.8146 27.8613 34.0638L26.0343 32.2426V27.3861L30.2972 31.6357C30.7082 32.0454 31.3748 32.0454 31.7858 31.6357C32.1969 31.2259 32.1969 30.5615 31.7858 30.1517L24.4976 22.8866V35.5167C24.4976 37.9927 22.484 40 20 40C17.516 40 15.5024 37.9927 15.5024 35.5167V32.9411L18.9474 29.5071V35.5167C18.9474 36.0962 19.4186 36.5659 20 36.5659C20.5814 36.5659 21.0526 36.0962 21.0526 35.5167V24.4797C21.0527 22.5832 22.595 21.0457 24.4976 21.0457H26.413Z" fill="#00FFCC"></path><path d="M10.5263 18.9471H4.49761C3.91628 18.9471 3.44502 19.4169 3.44498 19.9964C3.44498 20.5759 3.91626 21.0457 4.49761 21.0457H15.5024C17.317 21.0457 18.8038 22.4443 18.9375 24.2191C18.9439 24.2599 18.9474 24.3022 18.9474 24.3459V26.2739C18.9474 26.9792 18.6674 27.656 18.1687 28.1563L12.2591 34.086C10.5054 35.8456 7.66218 35.8456 5.90853 34.086C4.15494 32.3264 4.15492 29.4736 5.90853 27.714L7.73269 25.8837H12.5968L8.34068 30.1543C7.93026 30.5661 7.93026 31.2339 8.34068 31.6457C8.75111 32.0575 9.41651 32.0575 9.82693 31.6457L16.9688 24.4797H4.49761C2.01365 24.4797 0 22.4724 0 19.9964C4.4191e-05 17.5203 2.01367 15.513 4.49761 15.513H7.08134L10.5263 18.9471Z" fill="#00FFCC"></path><path d="M27.7516 5.95183C29.508 4.20098 32.3556 4.20098 34.112 5.95183C35.8685 7.70268 35.8685 10.5413 34.112 12.2921L32.2851 14.1133H27.4133L31.6761 9.86395C32.0872 9.45417 32.0872 8.78977 31.6761 8.38C31.2651 7.97023 30.5985 7.97022 30.1875 8.38L23.0317 15.513H35.5024C37.9863 15.513 40 17.5203 40 19.9964C40 22.4724 37.9864 24.4797 35.5024 24.4797H32.9187L29.4737 21.0457H35.5024C36.0837 21.0457 36.555 20.5759 36.555 19.9964C36.555 19.4169 36.0837 18.9471 35.5024 18.9471H24.4976C22.6807 18.9471 21.1923 17.545 21.062 15.767C21.0558 15.7273 21.0526 15.6861 21.0526 15.6436V13.7358C21.0526 13.0275 21.335 12.3481 21.8374 11.8472L27.7516 5.95183Z" fill="#00FFCC"></path><path d="M20 0C22.484 7.86686e-07 24.4976 2.00726 24.4976 4.48334V7.05888L21.0526 10.4929V4.48334C21.0526 3.90383 20.5814 3.43405 20 3.43405C19.4186 3.43405 18.9474 3.90383 18.9474 4.48334V15.1315C18.9474 17.2388 17.2336 18.9471 15.1196 18.9471H13.7543C13.0467 18.9471 12.3678 18.6682 11.8658 18.1711L5.91713 12.28C4.15199 10.5319 4.15195 7.69766 5.91713 5.94959C7.68231 4.20153 10.5443 4.20156 12.3095 5.94959L14.1457 7.76797V12.6169L9.86151 8.37403C9.44839 7.96492 8.77849 7.96494 8.36536 8.37403C7.95222 8.78316 7.95222 9.44662 8.36536 9.85575L15.5024 16.9236V4.48334C15.5024 2.00726 17.516 0 20 0Z" fill="#00FFCC"></path></g>
        <g id="logotype" transform="translate(46.5, 12.5)"><path fill="#111111" d="M10.72 3.67L10.65 3.87L6.11 17.00L10.91 17.00L12.01 13.82L19.60 13.82L20.70 17.00L25.51 17.00L20.97 3.87C20.20 1.67 18.13 0.20 15.81 0.20C13.55 0.20 11.54 1.58 10.72 3.67ZM16.67 5.36L18.03 9.28L13.58 9.28L14.94 5.36L14.97 5.29C15.11 4.96 15.44 4.74 15.81 4.74C16.20 4.74 16.55 4.99 16.67 5.36ZM30.77 8.60C30.77 6.47 32.50 4.74 34.63 4.74L39.40 4.74L39.40 0.20L34.63 0.20C29.99 0.20 26.23 3.96 26.23 8.60C26.23 13.24 29.99 17.00 34.63 17.00L39.40 17.00L39.40 12.46L34.63 12.46C32.50 12.46 30.77 10.73 30.77 8.60ZM51.97 17L56.96 17L56.96 12.46L51.97 12.46C51.72 12.46 51.51 12.26 51.51 12.01L51.51 11.55C54.54 11.43 56.96 8.93 56.96 5.88C56.96 2.74 54.42 0.20 51.29 0.20L45.35 0.20C43.24 0.20 41.52 1.91 41.52 4.03L41.52 17L46.07 17L46.07 4.74L51.29 4.74C51.91 4.74 52.42 5.25 52.42 5.88C52.42 6.50 51.91 7.01 51.29 7.01L50.61 7.01C48.60 7.01 46.97 8.64 46.97 10.64L46.97 12.01C46.97 14.76 49.21 17 51.97 17ZM68.15 4.52C70.40 4.52 72.23 6.35 72.23 8.60C72.23 10.85 70.40 12.68 68.15 12.68L67.22 12.68C64.97 12.68 63.15 10.85 63.15 8.60C63.15 6.35 64.97 4.52 67.22 4.52ZM67.22-0.02C62.46-0.02 58.61 3.84 58.61 8.60C58.61 13.36 62.46 17.22 67.22 17.22L68.15 17.22C72.91 17.22 76.77 13.36 76.77 8.60C76.77 3.84 72.91-0.02 68.15-0.02ZM83.20 17L83.20 5.33L86.46 14.12L86.52 14.28C87.20 15.92 88.81 17.00 90.59 17.00L90.82 16.99C93.15 16.88 95.01 14.95 95.01 12.59L95.01 0.20L90.47 0.20L90.47 11.87L87.21 3.08C86.57 1.35 84.92 0.20 83.07 0.20C80.64 0.20 78.66 2.18 78.66 4.61L78.66 17.00ZM101.61 0.20C99.35 0.20 97.52 2.03 97.52 4.29L97.52 17.00L102.07 17.00L102.07 11.10L107.97 11.10L107.97 6.56L102.07 6.56L102.07 4.74L111.60 4.74L111.60 0.20ZM112.96 10.19C112.96 13.95 116.01 17.00 119.77 17.00L126.58 17.00L126.58 12.46L119.77 12.46C118.52 12.46 117.50 11.44 117.50 10.19L117.50 0.20L112.96 0.20ZM137.62 4.52C139.88 4.52 141.70 6.35 141.70 8.60C141.70 10.85 139.88 12.68 137.62 12.68L136.70 12.68C134.45 12.68 132.62 10.85 132.62 8.60C132.62 6.35 134.45 4.52 136.70 4.52ZM136.70-0.02C131.94-0.02 128.08 3.84 128.08 8.60C128.08 13.36 131.94 17.22 136.70 17.22L137.62 17.22C142.38 17.22 146.24 13.36 146.24 8.60C146.24 3.84 142.38-0.02 137.62-0.02ZM170.43 0.20L165.76 0.20L163.67 8.77L162.00 3.55C161.54 2.10 160.18 1.11 158.65 1.11C157.17 1.11 155.86 2.03 155.35 3.42L155.31 3.55L153.64 8.77L151.55 0.20L146.88 0.20L150.38 14.58L150.41 14.71C150.80 16.06 152.04 17 153.46 17L153.59 17.00C154.87 16.95 155.99 16.12 156.43 14.92L156.48 14.80L158.65 7.99L160.83 14.80L160.87 14.92C161.33 16.16 162.52 17.00 163.85 17.00L163.99 17.00C165.34 16.94 166.52 16.02 166.89 14.71L166.93 14.58Z"></path></g>
        
      </svg>